<svg width="15" height="14" viewBox="0 0 15 14" fill="none" xmlns="http://www.w3.org/2000/svg">
<g clip-path="url(#clip0_22_51)">
<path d="M13.8999 6.97654C13.8999 7.04946 13.8739 7.11196 13.8218 7.16404L10.8218 9.92967C10.7384 10.0026 10.6473 10.0182 10.5483 9.97654C10.4494 9.92967 10.3999 9.85414 10.3999 9.74998V7.99998H0.649902C0.576986 7.99998 0.51709 7.97654 0.470215 7.92967C0.42334 7.88279 0.399902 7.82289 0.399902 7.74998V6.24998C0.399902 6.17706 0.42334 6.11717 0.470215 6.07029C0.51709 6.02342 0.576986 5.99998 0.649902 5.99998H10.3999V4.24998C10.3999 4.1406 10.4494 4.06508 10.5483 4.02342C10.6473 3.98175 10.7384 3.99477 10.8218 4.06248L13.8218 6.79685C13.8739 6.84894 13.8999 6.90883 13.8999 6.97654Z" fill="white"/>
</g>
<defs>
<clipPath id="clip0_22_51">
<rect width="14" height="14" fill="white" transform="matrix(1 0 0 -1 0.399902 14)"/>
</clipPath>
</defs>
</svg>
