<svg width="15" height="14" viewBox="0 0 15 14" fill="none" xmlns="http://www.w3.org/2000/svg">
<g clip-path="url(#clip0_22_107)">
<path d="M13.55 6.97654C13.55 7.04946 13.524 7.11196 13.4719 7.16404L10.4719 9.92967C10.3886 10.0026 10.2974 10.0182 10.1985 9.97654C10.0995 9.92967 10.05 9.85414 10.05 9.74998V7.99998H0.300049C0.227132 7.99998 0.167236 7.97654 0.120361 7.92967C0.0734863 7.88279 0.0500488 7.82289 0.0500488 7.74998V6.24998C0.0500488 6.17706 0.0734863 6.11717 0.120361 6.07029C0.167236 6.02342 0.227132 5.99998 0.300049 5.99998H10.05V4.24998C10.05 4.1406 10.0995 4.06508 10.1985 4.02342C10.2974 3.98175 10.3886 3.99477 10.4719 4.06248L13.4719 6.79685C13.524 6.84894 13.55 6.90883 13.55 6.97654Z" fill="#0D0D0D"/>
</g>
<defs>
<clipPath id="clip0_22_107">
<rect width="14" height="14" fill="white" transform="matrix(1 0 0 -1 0.0500488 14)"/>
</clipPath>
</defs>
</svg>
