<svg width="39" height="40" viewBox="0 0 39 40" fill="none" xmlns="http://www.w3.org/2000/svg">
<path d="M19.2188 0.78125C16.5938 0.78125 14.1094 1.28125 11.7656 2.28125C9.42188 3.28125 7.375 4.65625 5.625 6.40625C3.875 8.15625 2.5 10.2031 1.5 12.5469C0.5 14.8906 0 17.375 0 20C0 22.625 0.5 25.1094 1.5 27.4531C2.5 29.7969 3.875 31.8438 5.625 33.5938C7.375 35.3438 9.42188 36.7188 11.7656 37.7188C14.1094 38.7188 16.5938 39.2188 19.2188 39.2188C21.8438 39.2188 24.3281 38.7188 26.6719 37.7188C29.0156 36.7188 31.0625 35.3438 32.8125 33.5938C34.5625 31.8438 35.9375 29.7969 36.9375 27.4531C37.9375 25.1094 38.4375 22.625 38.4375 20C38.4375 17.375 37.9375 14.8906 36.9375 12.5469C35.9375 10.2031 34.5625 8.15625 32.8125 6.40625C31.0625 4.65625 29.0156 3.28125 26.6719 2.28125C24.3281 1.28125 21.8438 0.78125 19.2188 0.78125ZM19.2188 37.625C16.7812 37.625 14.5 37.1562 12.375 36.2188C10.25 35.2812 8.375 34.0312 6.75 32.4688C5.1875 30.8438 3.9375 28.9688 3 26.8438C2.0625 24.7188 1.59375 22.4375 1.59375 20C1.59375 17.5625 2.0625 15.2812 3 13.1562C3.9375 11.0312 5.1875 9.15625 6.75 7.53125C8.375 5.96875 10.25 4.71875 12.375 3.78125C14.5 2.84375 16.7812 2.375 19.2188 2.375C21.6562 2.375 23.9375 2.84375 26.0625 3.78125C28.1875 4.71875 30.0625 5.96875 31.6875 7.53125C33.25 9.15625 34.5 11.0312 35.4375 13.1562C36.375 15.2812 36.8438 17.5625 36.8438 20C36.8438 22.4375 36.375 24.7188 35.4375 26.8438C34.5 28.9688 33.25 30.8438 31.6875 32.4688C30.0625 34.0312 28.1875 35.2812 26.0625 36.2188C23.9375 37.1562 21.6562 37.625 19.2188 37.625ZM19.2188 21.5938H9.65625V23.1875H20.8125V7.25H19.2188V21.5938Z" fill="white"/>
</svg>
