<svg width="120" height="96" viewBox="0 0 120 96" fill="none" xmlns="http://www.w3.org/2000/svg">
<path d="M51.1941 0.553822L32.8461 67.2738L26.7301 42.2538C34.6994 42.2538 41.1861 44.5705 46.1901 49.2038C51.1941 53.8372 53.6961 60.2312 53.6961 68.3858C53.6961 76.3552 51.1014 82.8418 45.9121 87.8458C40.9081 92.6645 34.6068 95.0738 27.0081 95.0738C19.2241 95.0738 12.7374 92.6645 7.54809 87.8458C2.54409 82.8418 0.0420884 76.3552 0.0420884 68.3858C0.0420884 65.9765 0.227422 63.6598 0.598088 61.4358C0.968755 59.0265 1.71009 56.2465 2.82209 53.0958C3.93409 49.9452 5.50942 45.7752 7.54809 40.5858L23.6721 0.553822H51.1941ZM116.802 0.553822L98.4541 67.2738L92.3381 42.2538C100.307 42.2538 106.794 44.5705 111.798 49.2038C116.802 53.8372 119.304 60.2312 119.304 68.3858C119.304 76.3552 116.709 82.8418 111.52 87.8458C106.516 92.6645 100.215 95.0738 92.6161 95.0738C84.8321 95.0738 78.3454 92.6645 73.1561 87.8458C68.1521 82.8418 65.6501 76.3552 65.6501 68.3858C65.6501 65.9765 65.8354 63.6598 66.2061 61.4358C66.5768 59.0265 67.3181 56.2465 68.4301 53.0958C69.5421 49.9452 71.1174 45.7752 73.1561 40.5858L89.2801 0.553822H116.802Z" fill="#FFAE12"/>
</svg>
