<svg width="48" height="48" viewBox="0 0 48 48" fill="none" xmlns="http://www.w3.org/2000/svg">
<path d="M39.9375 4.03125C39.9375 4.03125 39.9219 4.03125 39.8906 4.03125C39.8594 4.03125 39.8125 4.03125 39.75 4.03125H35.1562H3.375C3.3125 4.03125 3.26562 4.03125 3.23438 4.03125C3.20312 4.03125 3.1875 4.03125 3.1875 4.03125C2.75 4.03125 2.32812 4.10938 1.92188 4.26562C1.51562 4.42188 1.1875 4.65625 0.9375 4.96875C0.625 5.21875 0.390625 5.54688 0.234375 5.95312C0.078125 6.35938 0 6.78125 0 7.21875C0 7.65625 0.078125 8.0625 0.234375 8.4375C0.390625 8.8125 0.625 9.15625 0.9375 9.46875L7.96875 16.5V16.0312C7.96875 17.8438 8.29688 19.5469 8.95312 21.1406C9.60938 22.7344 10.5312 24.125 11.7188 25.3125C12.8438 26.5625 14.1875 27.5625 15.75 28.3125C17.3125 29.0625 18.9688 29.4688 20.7188 29.5312V42.375H14.3438V43.9688H28.7812V42.375H22.4062V29.5312C24.1562 29.4688 25.8125 29.0625 27.375 28.3125C28.9375 27.5625 30.2812 26.5625 31.4062 25.3125C32.5938 24.125 33.5156 22.7344 34.1719 21.1406C34.8281 19.5469 35.1562 17.8438 35.1562 16.0312V16.5L42.1875 9.46875C42.5 9.15625 42.7344 8.8125 42.8906 8.4375C43.0469 8.0625 43.125 7.65625 43.125 7.21875C43.125 6.78125 43.0469 6.35938 42.8906 5.95312C42.7344 5.54688 42.5 5.21875 42.1875 4.96875C41.9375 4.65625 41.6094 4.42188 41.2031 4.26562C40.7969 4.10938 40.375 4.03125 39.9375 4.03125ZM7.96875 14.25L2.0625 8.34375C1.875 8.21875 1.75 8.04688 1.6875 7.82812C1.625 7.60938 1.59375 7.40625 1.59375 7.21875C1.59375 6.78125 1.73438 6.40625 2.01562 6.09375C2.29688 5.78125 2.65625 5.625 3.09375 5.625C3.15625 5.625 3.1875 5.625 3.1875 5.625C3.1875 5.625 3.21875 5.625 3.28125 5.625H7.96875V14.25ZM33.5625 16.0312C33.5625 17.6562 33.25 19.2031 32.625 20.6719C32 22.1406 31.125 23.4062 30 24.4688C28.9375 25.5938 27.6719 26.4688 26.2031 27.0938C24.7344 27.7188 23.1875 28.0312 21.5625 28.0312C19.9375 28.0312 18.3906 27.7188 16.9219 27.0938C15.4531 26.4688 14.1875 25.5938 13.125 24.4688C12 23.4062 11.125 22.1406 10.5 20.6719C9.875 19.2031 9.5625 17.6562 9.5625 16.0312V5.625H33.5625V16.0312ZM41.0625 8.34375L35.1562 14.25V5.625H39.8438C39.9062 5.625 39.9375 5.625 39.9375 5.625C39.9375 5.625 39.9688 5.625 40.0312 5.625C40.4688 5.625 40.8281 5.78125 41.1094 6.09375C41.3906 6.40625 41.5312 6.78125 41.5312 7.21875C41.5312 7.40625 41.5 7.60938 41.4375 7.82812C41.375 8.04688 41.25 8.21875 41.0625 8.34375Z" fill="white"/>
</svg>
