<svg width="41" height="48" viewBox="0 0 41 48" fill="none" xmlns="http://www.w3.org/2000/svg">
<g clip-path="url(#clip0_22_70)">
<path d="M41.01 21.5625C41.01 18.8126 40.4787 16.2346 39.4163 13.8284C38.3538 11.4222 36.9164 9.31293 35.1039 7.50048C33.2915 5.68804 31.1665 4.25058 28.7291 3.18812C26.2917 2.12565 23.698 1.59442 20.9481 1.59442C18.1982 1.59442 15.6045 2.12565 13.1671 3.18812C10.7297 4.25058 8.63599 5.68804 6.88605 7.50048C5.0736 9.31293 3.63615 11.4222 2.57368 13.8284C1.51121 16.2346 0.97998 18.8126 0.97998 21.5625V29.7185H1.07373C1.07373 29.8435 1.07373 29.9685 1.07373 30.0935C1.07373 30.2185 1.07373 30.3123 1.07373 30.3748C1.07373 31.6872 1.32372 32.9372 1.8237 34.1247C2.32369 35.3121 3.01117 36.3433 3.88614 37.2183C4.69861 38.0933 5.68296 38.7808 6.83917 39.2807C7.99539 39.7807 9.22972 40.0307 10.5422 40.0307V20.8126C9.66721 20.8126 8.83911 20.9063 8.05788 21.0938C7.27666 21.2813 6.57356 21.5625 5.94858 21.9375C5.2611 22.3125 4.63612 22.7656 4.07363 23.2969C3.51115 23.8281 3.01117 24.4375 2.57368 25.1249V21.5625C2.57368 19.0626 3.05804 16.6877 4.02676 14.4378C4.99548 12.1878 6.32356 10.2504 8.01101 8.62545C9.63596 6.938 11.5734 5.60992 13.8233 4.6412C16.0733 3.67248 18.4482 3.18812 20.9481 3.18812C23.5105 3.18812 25.9011 3.67248 28.1198 4.6412C30.3384 5.60992 32.2915 6.938 33.979 8.62545C35.6664 10.2504 36.9945 12.1878 37.9632 14.4378C38.9319 16.6877 39.4163 19.0626 39.4163 21.5625V25.1249C38.9788 24.5 38.4788 23.9218 37.9163 23.3906C37.3538 22.8594 36.7289 22.4063 36.0414 22.0313C35.3539 21.6563 34.6196 21.3594 33.8383 21.1407C33.0571 20.9219 32.2603 20.8126 31.4478 20.8126H31.354V40.0307H31.4478C31.8853 40.0307 32.2759 39.9995 32.6196 39.937C32.9634 39.8745 33.354 39.7807 33.7915 39.6557C33.1665 40.2807 32.5259 40.8276 31.8696 41.2963C31.2134 41.765 30.5103 42.2181 29.7603 42.6556C29.0729 43.0306 28.3229 43.3587 27.5104 43.64C26.6979 43.9212 25.8855 44.1868 25.073 44.4368V41.6244H17.0107V46.4055H24.9792V46.1243C26.2292 45.8118 27.4479 45.4212 28.6354 44.9524C29.8228 44.4837 30.9478 43.8743 32.0103 43.1244C33.0727 42.4369 34.0571 41.6557 34.9633 40.7807C35.8695 39.9057 36.6664 38.937 37.3538 37.8745C37.9163 37.437 38.4163 36.9527 38.8538 36.4215C39.2913 35.8902 39.6663 35.2809 39.9788 34.5934C40.2913 33.9684 40.5412 33.2966 40.7287 32.5778C40.9162 31.8591 41.01 31.1247 41.01 30.3748C41.01 30.2498 41.01 30.1404 41.01 30.0467C41.01 29.9529 41.01 29.8435 41.01 29.7185V21.5625ZM8.94848 22.5938V38.2495C8.07351 38.062 7.24541 37.7339 6.46418 37.2652C5.68296 36.7964 5.0111 36.2183 4.44862 35.5309C3.88614 34.7809 3.43303 33.984 3.08929 33.1403C2.74555 32.2966 2.57368 31.3747 2.57368 30.3748C2.57368 29.4373 2.74555 28.5311 3.08929 27.6561C3.43303 26.7811 3.88614 25.9999 4.44862 25.3124C5.0111 24.6249 5.68296 24.0468 6.46418 23.5781C7.24541 23.1094 8.07351 22.7813 8.94848 22.5938ZM23.3855 44.8118H18.6044V43.2181H23.3855V44.8118ZM32.9477 38.2495V22.5938C33.8852 22.7813 34.7446 23.1094 35.5258 23.5781C36.307 24.0468 36.9789 24.6249 37.5413 25.3124C38.1038 25.9999 38.5569 26.7811 38.9007 27.6561C39.2444 28.5311 39.4163 29.4373 39.4163 30.3748C39.4163 31.3747 39.2444 32.2966 38.9007 33.1403C38.5569 33.984 38.1038 34.7809 37.5413 35.5309C36.9789 36.2183 36.307 36.7964 35.5258 37.2652C34.7446 37.7339 33.8852 38.062 32.9477 38.2495Z" fill="white"/>
</g>
<defs>
<clipPath id="clip0_22_70">
<rect width="40.03" height="48" fill="white" transform="matrix(1 0 0 -1 0.97998 48)"/>
</clipPath>
</defs>
</svg>
