<svg width="40" height="36" viewBox="0 0 40 36" fill="none" xmlns="http://www.w3.org/2000/svg">
<path d="M28.7812 1.6875C30.0938 1.6875 31.3281 1.9375 32.4844 2.4375C33.6406 2.9375 34.6562 3.625 35.5312 4.5C36.4062 5.375 37.0938 6.39062 37.5938 7.54688C38.0938 8.70312 38.3438 9.9375 38.3438 11.25C38.3438 11.9375 38.2812 12.5938 38.1562 13.2188C38.0312 13.8438 37.8438 14.4688 37.5938 15.0938C37.3438 15.6562 37.0312 16.1875 36.6562 16.6875C36.2812 17.1875 35.875 17.6562 35.4375 18.0938L19.9688 33.6562L4.21875 17.8125C3.84375 17.4375 3.48438 17 3.14062 16.5C2.79688 16 2.5 15.4688 2.25 14.9062C2.0625 14.3438 1.90625 13.75 1.78125 13.125C1.65625 12.5 1.59375 11.875 1.59375 11.25C1.59375 9.9375 1.84375 8.70312 2.34375 7.54688C2.84375 6.39062 3.53125 5.375 4.40625 4.5C5.28125 3.625 6.29688 2.9375 7.45312 2.4375C8.60938 1.9375 9.84375 1.6875 11.1562 1.6875C12.1562 1.6875 13.1094 1.82812 14.0156 2.10938C14.9219 2.39062 15.75 2.78125 16.5 3.28125C17.25 3.84375 17.9219 4.48438 18.5156 5.20312C19.1094 5.92188 19.5938 6.71875 19.9688 7.59375C20.3438 6.71875 20.8281 5.92188 21.4219 5.20312C22.0156 4.48438 22.6875 3.84375 23.4375 3.28125C24.1875 2.78125 25.0156 2.39062 25.9219 2.10938C26.8281 1.82812 27.7812 1.6875 28.7812 1.6875ZM28.7812 0.09375C27.9062 0.09375 27.0469 0.1875 26.2031 0.375C25.3594 0.5625 24.5625 0.84375 23.8125 1.21875C23.0625 1.59375 22.3594 2.04688 21.7031 2.57812C21.0469 3.10938 20.4688 3.71875 19.9688 4.40625C19.4688 3.71875 18.8906 3.10938 18.2344 2.57812C17.5781 2.04688 16.875 1.59375 16.125 1.21875C15.375 0.84375 14.5781 0.5625 13.7344 0.375C12.8906 0.1875 12.0312 0.09375 11.1562 0.09375C9.59375 0.09375 8.14062 0.390625 6.79688 0.984375C5.45312 1.57812 4.28125 2.375 3.28125 3.375C2.21875 4.375 1.40625 5.54688 0.84375 6.89062C0.28125 8.23438 0 9.6875 0 11.25C0 11.9375 0.0625 12.6406 0.1875 13.3594C0.3125 14.0781 0.5 14.75 0.75 15.375C1.0625 16.0625 1.40625 16.7031 1.78125 17.2969C2.15625 17.8906 2.59375 18.4375 3.09375 18.9375L19.9688 35.9062L36.5625 19.2188C37.125 18.7188 37.6094 18.1562 38.0156 17.5312C38.4219 16.9062 38.7812 16.2812 39.0938 15.6562C39.3438 14.9688 39.5469 14.25 39.7031 13.5C39.8594 12.75 39.9375 12 39.9375 11.25C39.9375 9.6875 39.6562 8.23438 39.0938 6.89062C38.5312 5.54688 37.7188 4.375 36.6562 3.375C35.6562 2.375 34.4844 1.57812 33.1406 0.984375C31.7969 0.390625 30.3438 0.09375 28.7812 0.09375Z" fill="white"/>
</svg>
