<svg width="42" height="48" viewBox="0 0 42 48" fill="none" xmlns="http://www.w3.org/2000/svg">
<g clip-path="url(#clip0_22_88)">
<path d="M41.3955 23.4375C41.3955 22.9375 41.3174 22.4844 41.1611 22.0781C41.0049 21.6719 40.7705 21.3125 40.458 21C40.083 20.6875 39.6924 20.4531 39.2861 20.2969C38.8799 20.1406 38.3955 20.0625 37.833 20.0625H25.083C25.2705 19.5625 25.5049 18.9531 25.7861 18.2344C26.0674 17.5156 26.3018 16.7188 26.4893 15.8438C26.7393 14.9688 26.9424 14.0469 27.0986 13.0781C27.2549 12.1094 27.333 11.0938 27.333 10.0312C27.333 8.84375 27.208 7.89062 26.958 7.17188C26.708 6.45312 26.3643 5.875 25.9268 5.4375C25.4893 5 25.0205 4.71875 24.5205 4.59375C24.0205 4.46875 23.5205 4.40625 23.0205 4.40625C22.708 4.40625 22.3799 4.45312 22.0361 4.54688C21.6924 4.64062 21.3643 4.8125 21.0518 5.0625C20.7393 5.25 20.4893 5.51562 20.3018 5.85938C20.1143 6.20312 20.0205 6.5625 20.0205 6.9375C20.0205 7.3125 19.8486 8.71875 19.5049 11.1562C19.1611 13.5938 18.0205 15.625 16.083 17.25C15.083 18.0625 14.2236 18.75 13.5049 19.3125C12.7861 19.875 12.1455 20.3125 11.583 20.625C11.083 21 10.5986 21.25 10.1299 21.375C9.66113 21.5 9.14551 21.5625 8.58301 21.5625C7.27051 21.5625 5.72363 21.5625 3.94238 21.5625C2.16113 21.5625 1.27051 21.5625 1.27051 21.5625L0.520508 21.6562V39.9375H9.05176C9.36426 39.9375 9.87988 40.0938 10.5986 40.4062C11.3174 40.7188 12.0518 41.0312 12.8018 41.3438C13.4268 41.5938 14.0518 41.8594 14.6768 42.1406C15.3018 42.4219 15.9268 42.6562 16.5518 42.8438C17.1768 43.0938 17.7705 43.2812 18.333 43.4062C18.8955 43.5312 19.3955 43.5938 19.833 43.5938H32.208C32.708 43.5938 33.1768 43.5 33.6143 43.3125C34.0518 43.125 34.458 42.875 34.833 42.5625C35.1455 42.25 35.3955 41.875 35.583 41.4375C35.7705 41 35.8643 40.5625 35.8643 40.125C35.8643 39.6875 35.8018 39.2969 35.6768 38.9531C35.5518 38.6094 35.3643 38.2812 35.1143 37.9688C35.4893 37.9062 35.833 37.7656 36.1455 37.5469C36.458 37.3281 36.7393 37.0625 36.9893 36.75C37.1768 36.4375 37.333 36.1094 37.458 35.7656C37.583 35.4219 37.6455 35.0312 37.6455 34.5938C37.6455 34.2188 37.583 33.8438 37.458 33.4688C37.333 33.0938 37.1768 32.75 36.9893 32.4375C37.3018 32.3125 37.6143 32.1406 37.9268 31.9219C38.2393 31.7031 38.5205 31.4688 38.7705 31.2188C38.958 30.9062 39.1143 30.5625 39.2393 30.1875C39.3643 29.8125 39.4268 29.4375 39.4268 29.0625C39.4268 28.625 39.3643 28.2344 39.2393 27.8906C39.1143 27.5469 38.958 27.2188 38.7705 26.9062C39.1455 26.7812 39.4893 26.625 39.8018 26.4375C40.1143 26.25 40.3955 26 40.6455 25.6875C40.8955 25.375 41.083 25.0312 41.208 24.6562C41.333 24.2812 41.3955 23.875 41.3955 23.4375ZM37.833 25.4062H35.1143V27H35.8643C36.1143 27 36.3643 27.0625 36.6143 27.1875C36.8643 27.3125 37.083 27.4688 37.2705 27.6562C37.458 27.7812 37.6143 27.9688 37.7393 28.2188C37.8643 28.4688 37.9268 28.75 37.9268 29.0625C37.9268 29.3125 37.8643 29.5625 37.7393 29.8125C37.6143 30.0625 37.458 30.2812 37.2705 30.4688C37.083 30.6562 36.8643 30.7969 36.6143 30.8906C36.3643 30.9844 36.1143 31.0312 35.8643 31.0312H33.5205V32.625H34.1768C34.4268 32.625 34.6768 32.6875 34.9268 32.8125C35.1768 32.9375 35.3955 33.0625 35.583 33.1875C35.708 33.375 35.833 33.5938 35.958 33.8438C36.083 34.0938 36.1455 34.3438 36.1455 34.5938C36.1455 34.8438 36.083 35.0938 35.958 35.3438C35.833 35.5938 35.708 35.8125 35.583 36C35.3955 36.1875 35.1768 36.3281 34.9268 36.4219C34.6768 36.5156 34.4268 36.5625 34.1768 36.5625H32.0205V38.1562H32.208C32.5205 38.1562 32.8018 38.2031 33.0518 38.2969C33.3018 38.3906 33.5205 38.5312 33.708 38.7188C33.8955 38.9062 34.0361 39.1094 34.1299 39.3281C34.2236 39.5469 34.2705 39.8125 34.2705 40.125C34.2705 40.375 34.2236 40.625 34.1299 40.875C34.0361 41.125 33.8955 41.3125 33.708 41.4375C33.5205 41.625 33.3018 41.7812 33.0518 41.9062C32.8018 42.0312 32.5205 42.0938 32.208 42.0938H30.2393H19.833C19.458 42.0938 19.0205 42.0156 18.5205 41.8594C18.0205 41.7031 17.458 41.5312 16.833 41.3438C16.2705 41.1562 15.6924 40.9219 15.0986 40.6406C14.5049 40.3594 13.958 40.0938 13.458 39.8438C12.3955 39.4062 11.5049 39.0469 10.7861 38.7656C10.0674 38.4844 9.48926 38.3438 9.05176 38.3438H2.11426V23.1562C2.48926 23.1562 2.94238 23.1562 3.47363 23.1562C4.00488 23.1562 4.55176 23.1562 5.11426 23.1562C5.73926 23.1562 6.34863 23.1562 6.94238 23.1562C7.53613 23.1562 8.08301 23.1562 8.58301 23.1562C9.27051 23.1562 9.92676 23.0625 10.5518 22.875C11.1768 22.6875 11.8018 22.4062 12.4268 22.0312C13.0518 21.6562 13.7236 21.1719 14.4424 20.5781C15.1611 19.9844 16.0518 19.25 17.1143 18.375C18.1768 17.5 19.0049 16.4688 19.5986 15.2812C20.1924 14.0938 20.6455 12.9375 20.958 11.8125C21.2705 10.6875 21.458 9.6875 21.5205 8.8125C21.583 7.9375 21.6143 7.3125 21.6143 6.9375C21.6143 6.625 21.8018 6.375 22.1768 6.1875C22.5518 6 22.833 5.90625 23.0205 5.90625C23.458 5.90625 24.0205 6.07812 24.708 6.42188C25.3955 6.76562 25.7393 7.96875 25.7393 10.0312C25.7393 12.6562 25.3018 15.0469 24.4268 17.2031C23.5518 19.3594 23.1143 20.4375 23.1143 20.4375L22.5518 21.5625H32.208C32.208 21.625 32.208 21.6406 32.208 21.6094C32.208 21.5781 32.208 21.5625 32.208 21.5625H37.833C38.458 21.5625 38.958 21.75 39.333 22.125C39.708 22.5 39.8955 22.9375 39.8955 23.4375C39.8955 23.75 39.833 24.0156 39.708 24.2344C39.583 24.4531 39.4268 24.6562 39.2393 24.8438C39.1143 25.0312 38.9268 25.1719 38.6768 25.2656C38.4268 25.3594 38.1455 25.4062 37.833 25.4062Z" fill="white"/>
</g>
<defs>
<clipPath id="clip0_22_88">
<rect width="40.97" height="48" fill="white" transform="matrix(1 0 0 -1 0.52002 48)"/>
</clipPath>
</defs>
</svg>
