<svg width="43" height="34" viewBox="0 0 43 34" fill="none" xmlns="http://www.w3.org/2000/svg">
<path d="M0.000488281 26C0.000488281 26.3125 0.000488281 26.8594 0.000488281 27.6406C0.000488281 28.4219 0.000488281 28.9375 0.000488281 29.1875C0.000488281 29.375 0.0786133 29.625 0.234863 29.9375C0.391113 30.25 0.719238 30.4062 1.21924 30.4062C1.59424 30.4062 2.90674 30.4062 5.15674 30.4062C7.40674 30.4062 9.21924 30.4062 10.5942 30.4062C11.0317 30.4062 11.3599 30.4062 11.5786 30.4062C11.7974 30.4062 11.9067 30.4062 11.9067 30.4062H12.188C12.188 30.4062 12.2192 30.4062 12.2817 30.4062C12.3442 30.4062 12.438 30.4062 12.563 30.4062C12.563 30.7812 12.563 31.1094 12.563 31.3906C12.563 31.6719 12.563 31.875 12.563 32C12.563 32.3125 12.6724 32.6406 12.8911 32.9844C13.1099 33.3281 13.5317 33.5 14.1567 33.5C14.5942 33.5 16.2192 33.5 19.0317 33.5C21.8442 33.5 24.063 33.5 25.688 33.5C26.2505 33.5 26.6724 33.5 26.9536 33.5C27.2349 33.5 27.3755 33.5 27.3755 33.5H27.6567C27.6567 33.5 27.813 33.5 28.1255 33.5C28.438 33.5 28.8442 33.5 29.3442 33.5C31.0317 33.5 33.2817 33.5 36.0942 33.5C38.9067 33.5 40.5317 33.5 40.9692 33.5C41.5317 33.5 41.9224 33.3281 42.1411 32.9844C42.3599 32.6406 42.4692 32.3125 42.4692 32C42.4692 31.75 42.4692 31.1406 42.4692 30.1719C42.4692 29.2031 42.4692 28.5 42.4692 28.0625C42.4692 27.6875 42.3755 27.2812 42.188 26.8438C42.0005 26.4062 41.5942 26.0625 40.9692 25.8125C40.5942 25.625 40.063 25.4062 39.3755 25.1562C38.688 24.9062 37.9692 24.625 37.2192 24.3125C36.4067 24.0625 35.6099 23.7969 34.8286 23.5156C34.0474 23.2344 33.313 23 32.6255 22.8125C32.563 22.8125 32.5161 22.7656 32.4849 22.6719C32.4536 22.5781 32.438 22.3125 32.438 21.875C32.438 21.375 32.4692 20.9531 32.5317 20.6094C32.5942 20.2656 32.6567 19.9688 32.7192 19.7188C32.9067 19.3438 33.0786 18.9062 33.2349 18.4062C33.3911 17.9062 33.5005 17.375 33.563 16.8125C33.813 16.625 34.0474 16.2969 34.2661 15.8281C34.4849 15.3594 34.688 14.6875 34.8755 13.8125C35.0005 13.125 35.0474 12.6094 35.0161 12.2656C34.9849 11.9219 34.9067 11.625 34.7817 11.375C34.7817 11.3125 34.7817 11.2656 34.7817 11.2344C34.7817 11.2031 34.7817 11.1875 34.7817 11.1875C34.7192 11 34.7192 10.5469 34.7817 9.82812C34.8442 9.10938 34.938 8.375 35.063 7.625C35.1255 7.1875 35.0786 6.51562 34.9224 5.60938C34.7661 4.70312 34.3442 3.84375 33.6567 3.03125C33.4692 2.71875 33.2192 2.42188 32.9067 2.14062C32.5942 1.85938 32.2192 1.625 31.7817 1.4375C31.3442 1.1875 30.8442 0.96875 30.2817 0.78125C29.7192 0.59375 29.0942 0.5 28.4067 0.5H26.813C26.063 0.5 25.4067 0.59375 24.8442 0.78125C24.2817 0.96875 23.7817 1.1875 23.3442 1.4375C22.9067 1.625 22.5474 1.85938 22.2661 2.14062C21.9849 2.42188 21.7192 2.71875 21.4692 3.03125C20.8442 3.84375 20.438 4.70312 20.2505 5.60938C20.063 6.51562 20.0317 7.1875 20.1567 7.625C20.2817 8.375 20.3599 9.10938 20.3911 9.82812C20.4224 10.5469 20.438 11 20.438 11.1875C20.438 11.1875 20.4224 11.2031 20.3911 11.2344C20.3599 11.2656 20.3442 11.3125 20.3442 11.375C20.2817 11.625 20.2192 11.9219 20.1567 12.2656C20.0942 12.6094 20.1567 13.125 20.3442 13.8125C20.4692 14.6875 20.6567 15.3594 20.9067 15.8281C21.1567 16.2969 21.3755 16.625 21.563 16.8125C21.6255 17.375 21.7349 17.9062 21.8911 18.4062C22.0474 18.9062 22.2192 19.3438 22.4067 19.7188C22.5317 20.0312 22.6567 20.375 22.7817 20.75C22.9067 21.125 22.9692 21.5 22.9692 21.875C22.9692 22.3125 22.9536 22.5625 22.9224 22.625C22.8911 22.6875 22.8442 22.75 22.7817 22.8125C22.4692 22.875 22.1724 22.9531 21.8911 23.0469C21.6099 23.1406 21.313 23.25 21.0005 23.375C20.6255 23.25 20.2192 23.1094 19.7817 22.9531C19.3442 22.7969 18.938 22.6562 18.563 22.5312C18.1255 22.3438 17.7036 22.1875 17.2974 22.0625C16.8911 21.9375 16.5317 21.8438 16.2192 21.7812C16.0942 21.7188 16.0317 21.6562 16.0317 21.5938C16.0317 21.5312 16.0317 21.3125 16.0317 20.9375C16.0317 20.5625 16.0474 20.2344 16.0786 19.9531C16.1099 19.6719 16.188 19.4375 16.313 19.25C16.438 18.9375 16.563 18.5781 16.688 18.1719C16.813 17.7656 16.9067 17.3438 16.9692 16.9062C17.0942 16.7188 17.2505 16.4375 17.438 16.0625C17.6255 15.6875 17.813 15.1562 18.0005 14.4688C18.063 13.9062 18.0786 13.4844 18.0474 13.2031C18.0161 12.9219 17.9692 12.6562 17.9067 12.4062C17.9067 12.4062 17.9067 12.3906 17.9067 12.3594C17.9067 12.3281 17.9067 12.3125 17.9067 12.3125C17.8442 12.1875 17.8442 11.8281 17.9067 11.2344C17.9692 10.6406 18.0317 10.0625 18.0942 9.5C18.1567 9.125 18.1255 8.5625 18.0005 7.8125C17.8755 7.0625 17.5317 6.34375 16.9692 5.65625C16.8442 5.46875 16.6567 5.26562 16.4067 5.04688C16.1567 4.82812 15.8442 4.625 15.4692 4.4375C15.1567 4.25 14.7661 4.07812 14.2974 3.92188C13.8286 3.76562 13.313 3.6875 12.7505 3.6875H11.438C10.8755 3.6875 10.3599 3.76562 9.89111 3.92188C9.42236 4.07812 9.03174 4.25 8.71924 4.4375C8.34424 4.625 8.03174 4.82812 7.78174 5.04688C7.53174 5.26562 7.34424 5.46875 7.21924 5.65625C6.65674 6.34375 6.31299 7.0625 6.18799 7.8125C6.06299 8.5625 6.03174 9.125 6.09424 9.5C6.15674 10.0625 6.21924 10.6406 6.28174 11.2344C6.34424 11.8281 6.34424 12.1875 6.28174 12.3125C6.28174 12.3125 6.28174 12.3281 6.28174 12.3594C6.28174 12.3906 6.28174 12.4062 6.28174 12.4062C6.15674 12.6562 6.07861 12.9219 6.04736 13.2031C6.01611 13.4844 6.06299 13.9062 6.18799 14.4688C6.37549 15.1562 6.56299 15.6875 6.75049 16.0625C6.93799 16.4375 7.09424 16.7188 7.21924 16.9062C7.28174 17.3438 7.37549 17.7656 7.50049 18.1719C7.62549 18.5781 7.75049 18.9375 7.87549 19.25C8.00049 19.5 8.10986 19.7656 8.20361 20.0469C8.29736 20.3281 8.34424 20.625 8.34424 20.9375C8.34424 21.3125 8.34424 21.5312 8.34424 21.5938C8.34424 21.6562 8.28174 21.6875 8.15674 21.6875C7.65674 21.875 7.09424 22.0625 6.46924 22.25C5.84424 22.4375 5.21924 22.6562 4.59424 22.9062C3.96924 23.0938 3.37549 23.2969 2.81299 23.5156C2.25049 23.7344 1.81299 23.9062 1.50049 24.0312C1.00049 24.2188 0.625488 24.5 0.375488 24.875C0.125488 25.25 0.000488281 25.625 0.000488281 26ZM14.1567 28.0625C14.1567 28 14.2192 27.8594 14.3442 27.6406C14.4692 27.4219 14.688 27.25 15.0005 27.125C15.438 26.9375 15.9849 26.7188 16.6411 26.4688C17.2974 26.2188 18.0317 25.9688 18.8442 25.7188C19.5942 25.4688 20.3599 25.2188 21.1411 24.9688C21.9224 24.7188 22.5942 24.5 23.1567 24.3125C23.8442 24.125 24.2505 23.7656 24.3755 23.2344C24.5005 22.7031 24.563 22.25 24.563 21.875C24.563 21.3125 24.4849 20.7969 24.3286 20.3281C24.1724 19.8594 24.0005 19.4375 23.813 19.0625C23.688 18.75 23.563 18.375 23.438 17.9375C23.313 17.5 23.2192 17.0625 23.1567 16.625L23.063 16.1562L22.7817 15.7812C22.6567 15.7188 22.5161 15.5156 22.3599 15.1719C22.2036 14.8281 22.0317 14.2812 21.8442 13.5312C21.7192 12.9688 21.6724 12.5938 21.7036 12.4062C21.7349 12.2188 21.7817 12.0625 21.8442 11.9375V11.8438C21.8442 11.8438 21.8599 11.8125 21.8911 11.75C21.9224 11.6875 21.938 11.6562 21.938 11.6562V11.5625C22.0005 11.1875 22.0005 10.5469 21.938 9.64062C21.8755 8.73438 21.7817 7.96875 21.6567 7.34375C21.5942 7.09375 21.6255 6.625 21.7505 5.9375C21.8755 5.25 22.188 4.59375 22.688 3.96875C22.938 3.65625 23.2036 3.39062 23.4849 3.17188C23.7661 2.95312 24.0942 2.78125 24.4692 2.65625C24.7817 2.46875 25.1411 2.32812 25.5474 2.23438C25.9536 2.14062 26.4067 2.0625 26.9067 2H28.313C28.8755 2.0625 29.3755 2.15625 29.813 2.28125C30.2505 2.40625 30.6567 2.5625 31.0317 2.75C31.3442 2.9375 31.6099 3.14062 31.8286 3.35938C32.0474 3.57812 32.2505 3.78125 32.438 3.96875C32.938 4.59375 33.2505 5.25 33.3755 5.9375C33.5005 6.625 33.5317 7.09375 33.4692 7.34375C33.3442 7.96875 33.2505 8.73438 33.188 9.64062C33.1255 10.5469 33.1255 11.1562 33.188 11.4688V11.5625C33.2505 11.625 33.2817 11.6875 33.2817 11.75C33.2817 11.8125 33.313 11.875 33.3755 11.9375C33.3755 12.0625 33.3911 12.2188 33.4224 12.4062C33.4536 12.5938 33.4067 12.9688 33.2817 13.5312C33.1567 14.2812 33.0005 14.8281 32.813 15.1719C32.6255 15.5156 32.5005 15.7188 32.438 15.7812L32.063 16.1562V16.625C32.0005 17.0625 31.8911 17.5 31.7349 17.9375C31.5786 18.375 31.438 18.75 31.313 19.0625C31.188 19.4375 31.0786 19.8438 30.9849 20.2812C30.8911 20.7188 30.8442 21.25 30.8442 21.875C30.8442 22.3125 30.9067 22.7812 31.0317 23.2812C31.1567 23.7812 31.5317 24.125 32.1567 24.3125C32.7817 24.5 33.5005 24.7344 34.313 25.0156C35.1255 25.2969 35.9067 25.5625 36.6567 25.8125C37.4067 26.0625 38.1099 26.3125 38.7661 26.5625C39.4224 26.8125 39.938 27.0312 40.313 27.2188C40.563 27.3438 40.7192 27.4688 40.7817 27.5938C40.8442 27.7188 40.8755 27.875 40.8755 28.0625V32H14.1567V28.0625ZM1.59424 26C1.59424 25.9375 1.62549 25.8594 1.68799 25.7656C1.75049 25.6719 1.87549 25.5938 2.06299 25.5312C2.43799 25.3438 2.89111 25.1562 3.42236 24.9688C3.95361 24.7812 4.53174 24.5625 5.15674 24.3125C5.78174 24.125 6.39111 23.9375 6.98486 23.75C7.57861 23.5625 8.12549 23.375 8.62549 23.1875C9.31299 23 9.70361 22.6562 9.79736 22.1562C9.89111 21.6562 9.93799 21.25 9.93799 20.9375C9.93799 20.5 9.87549 20.0781 9.75049 19.6719C9.62549 19.2656 9.46924 18.875 9.28174 18.5C9.21924 18.3125 9.12549 18.0469 9.00049 17.7031C8.87549 17.3594 8.81299 17.0312 8.81299 16.7188L8.71924 16.25L8.43799 15.875C8.37549 15.8125 8.28174 15.6562 8.15674 15.4062C8.03174 15.1562 7.90674 14.75 7.78174 14.1875C7.71924 13.75 7.68799 13.4688 7.68799 13.3438C7.68799 13.2188 7.68799 13.125 7.68799 13.0625V12.9688H7.78174C7.78174 12.9062 7.78174 12.8594 7.78174 12.8281C7.78174 12.7969 7.78174 12.7812 7.78174 12.7812V12.6875H7.87549C7.93799 12.3125 7.93799 11.7344 7.87549 10.9531C7.81299 10.1719 7.71924 9.59375 7.59424 9.21875C7.59424 9.03125 7.64111 8.6875 7.73486 8.1875C7.82861 7.6875 8.06299 7.1875 8.43799 6.6875C8.56299 6.4375 8.73486 6.23438 8.95361 6.07812C9.17236 5.92188 9.40674 5.78125 9.65674 5.65625C9.96924 5.53125 10.2661 5.4375 10.5474 5.375C10.8286 5.3125 11.1567 5.25 11.5317 5.1875H12.6567C13.5317 5.25 14.2036 5.4375 14.6724 5.75C15.1411 6.0625 15.5005 6.375 15.7505 6.6875C16.1255 7.1875 16.3599 7.6875 16.4536 8.1875C16.5474 8.6875 16.5942 9.03125 16.5942 9.21875C16.4692 9.65625 16.3755 10.25 16.313 11C16.2505 11.75 16.2505 12.3125 16.313 12.6875C16.3755 12.75 16.4067 12.8125 16.4067 12.875C16.4067 12.9375 16.438 13 16.5005 13.0625C16.5005 13.125 16.5005 13.2188 16.5005 13.3438C16.5005 13.4688 16.4692 13.75 16.4067 14.1875C16.2817 14.75 16.1567 15.1562 16.0317 15.4062C15.9067 15.6562 15.813 15.8125 15.7505 15.875L15.4692 16.25L15.3755 16.7188C15.3755 17.0312 15.313 17.3594 15.188 17.7031C15.063 18.0469 14.938 18.3438 14.813 18.5938C14.688 18.9062 14.5942 19.25 14.5317 19.625C14.4692 20 14.438 20.4375 14.438 20.9375C14.438 21.3125 14.4849 21.7344 14.5786 22.2031C14.6724 22.6719 15.063 23.0312 15.7505 23.2812C16.1255 23.3438 16.563 23.4688 17.063 23.6562C17.563 23.8438 18.063 24 18.563 24.125C17.7505 24.4375 16.9692 24.7344 16.2192 25.0156C15.4692 25.2969 14.8755 25.5312 14.438 25.7188C13.813 25.9688 13.3442 26.3281 13.0317 26.7969C12.7192 27.2656 12.563 27.6875 12.563 28.0625C12.563 28.1875 12.563 28.3125 12.563 28.4375C12.563 28.5625 12.563 28.6875 12.563 28.8125H1.59424V26Z" fill="white"/>
</svg>
